<svg xmlns="http://www.w3.org/2000/svg" viewBox="0 0 64 64" width="64" height="64">
  <g fill="#ee1c1c">
    <polygon points="32,1 37,17 27,17"/>
    <polygon points="32,1 37,17 27,17" transform="rotate(45 32 32)"/>
    <polygon points="32,1 37,17 27,17" transform="rotate(90 32 32)"/>
    <polygon points="32,1 37,17 27,17" transform="rotate(135 32 32)"/>
    <polygon points="32,1 37,17 27,17" transform="rotate(180 32 32)"/>
    <polygon points="32,1 37,17 27,17" transform="rotate(225 32 32)"/>
    <polygon points="32,1 37,17 27,17" transform="rotate(270 32 32)"/>
    <polygon points="32,1 37,17 27,17" transform="rotate(315 32 32)"/>
  </g>
  <circle cx="32" cy="32" r="18" fill="#ee1c1c"/>
  <circle cx="32" cy="32" r="13" fill="#f5820a"/>
  <circle cx="32" cy="32" r="8.5" fill="#ff9e1b"/>
  <circle cx="32" cy="32" r="4.5" fill="#ffd400"/>
</svg>
